<?xml version="1.0" encoding="utf-8"?>
<!-- Generator: Adobe Illustrator 17.0.0, SVG Export Plug-In . SVG Version: 6.00 Build 0)  -->
<!DOCTYPE svg PUBLIC "-//W3C//DTD SVG 1.1//EN" "http://www.w3.org/Graphics/SVG/1.1/DTD/svg11.dtd">
<svg version="1.1" id="Layer_1" xmlns="http://www.w3.org/2000/svg" xmlns:xlink="http://www.w3.org/1999/xlink" x="0px" y="0px"
	 width="800px" height="209px" viewBox="0 0 800 209" enable-background="new 0 0 800 209" xml:space="preserve">
<g>
	<g>
		<path fill="#FFFFFF" fill-opacity="0.0" d="M0.004,209.845c0-69.492,0-139.139,0-208.816c266.91,0,533.825,0,800.867,0c0,69.534,0,139.097,0,208.816
			C534.003,209.845,267.005,209.845,0.004,209.845z M155.798,142.242c0-15.333-0.095-30.667,0.062-45.999
			c0.043-4.209-1.282-6.044-5.719-6.015c-20.332,0.136-40.666,0.112-60.999,0.015c-3.778-0.018-5.438,1.227-5.352,5.213
			c0.191,8.829,0.233,17.67-0.016,26.496c-0.121,4.286,1.633,5.523,5.62,5.391c6.326-0.211,12.666,0.037,18.997-0.091
			c2.8-0.056,4.309,0.537,4.263,3.811c-0.148,10.665-0.113,21.333-0.018,31.999c0.024,2.745-1.044,3.943-3.749,4.068
			c-6.482,0.299-12.961,1.06-19.436,1.008c-20.629-0.165-33.563-9.563-39.557-29.381c-6.161-20.367-6.123-41.108-1.247-61.72
			c4.766-20.148,17.319-32.174,38.318-34.428c15.724-1.687,31.257-0.713,46.473,3.908c5.585,1.696,6.077,1.375,7.467-4.36
			c1.49-6.145,2.943-12.299,4.468-18.435c2.987-12.018,3.056-12.193-8.967-15.725c-20.105-5.906-40.719-6.962-61.398-4.745
			C41.119,6.887,18.117,24.781,8.292,57.704c-8.944,29.973-9.447,60.528-1.777,90.839c7.187,28.403,24.882,47.467,53.68,54.911
			c8.485,2.193,17.35,3.304,26.113,3.963c22.68,1.705,44.464-1.866,64.907-12.37c3.4-1.747,4.73-3.912,4.673-7.805
			C155.668,172.244,155.799,157.242,155.798,142.242z M394.153,120.547c2.423-0.109,4.059-0.245,5.695-0.247
			c17.331-0.015,34.664,0.166,51.99-0.124c4.786-0.08,5.772,1.554,5.731,5.975c-0.221,23.994-0.088,47.991-0.235,71.986
			c-0.026,4.242,1.334,5.967,5.782,5.864c10.493-0.244,20.999-0.254,31.491,0.003c4.563,0.112,6.151-1.441,6.143-6.031
			c-0.103-60.657-0.114-121.314,0.016-181.97c0.011-4.924-1.758-6.349-6.451-6.22c-9.824,0.271-19.661,0.076-29.493,0.083
			c-7.286,0.006-7.336,0.043-7.341,7.154c-0.012,19.663-0.004,39.327-0.005,58.99c0,1.924,0,3.849,0,5.805
			c-21.469,0-42.178,0-63.325,0c0-2.197,0-4.004,0-5.81c-0.001-20.163-0.105-40.328,0.079-60.489
			c0.04-4.417-1.465-5.824-5.795-5.727c-10.493,0.236-20.997,0.21-31.492,0.012c-4.209-0.08-5.916,1.18-5.908,5.675
			c0.112,60.99,0.101,121.98,0.018,182.97c-0.006,4.121,1.46,5.613,5.568,5.539c10.328-0.188,20.662-0.054,30.994-0.064
			c6.416-0.006,6.525-0.093,6.528-6.352c0.014-23.496,0.006-46.992,0.006-70.489C394.153,125.105,394.153,123.13,394.153,120.547z
			 M702.234,194.174c1.105,0.527,1.736,0.728,2.253,1.09c13.208,9.261,28.143,12.626,43.952,12.316
			c26.129-0.512,40.719-11.605,47.006-36.251c5.205-20.408,5.965-41.219,2.026-61.921c-4.565-23.988-16.961-37.394-37.953-40.755
			c-7.755-1.242-16.007-1.01-23.807,0.116c-7.748,1.118-15.211,4.205-23.19,6.544c0-1.609,0-3.415,0-5.222
			c-0.001-18.154-0.084-36.309,0.058-54.461c0.033-4.264-1.378-5.949-5.791-5.84c-9.82,0.242-19.651,0.072-29.477,0.075
			c-8.105,0.003-8.109,0.006-8.109,7.882c-0.001,44.635-0.001,89.271-0.001,133.906c0,15.489,0.096,30.979-0.062,46.467
			c-0.044,4.26,1.349,6.051,5.777,5.87c6.485-0.265,13.01-0.398,19.476,0.039c4.952,0.335,7.1-1.618,7.395-6.286
			C701.849,196.756,702.029,195.775,702.234,194.174z M616.749,195.098c0.396,1.222,0.959,2.154,0.957,3.085
			c-0.011,4.881,2.56,6.13,7.055,5.882c5.98-0.33,11.996-0.247,17.988-0.061c3.906,0.121,5.261-1.428,5.253-5.299
			c-0.086-40.487-0.098-80.974,0.014-121.46c0.011-4.173-1.491-5.574-5.555-5.504c-10.327,0.178-20.659,0.04-30.989,0.064
			c-6.198,0.015-6.389,0.222-6.391,6.538c-0.008,25.658-0.003,51.317-0.003,76.975c0,13.355-1.52,15.23-14.82,17.566
			c-3.099,0.544-6.305,0.905-9.435,0.765c-10.358-0.465-14.268-4.333-15.181-14.653c-0.205-2.318-0.235-4.658-0.237-6.987
			c-0.017-24.659-0.022-49.317,0.001-73.976c0.003-3.355,0.073-6.355-4.764-6.281c-11.327,0.173-22.659,0.085-33.988,0.036
			c-3.012-0.013-4.64,0.979-4.629,4.326c0.098,30.323-0.347,60.656,0.338,90.964c0.382,16.912,7.074,30.858,24.527,36.929
			c10.545,3.668,21.484,4.384,32.54,3.439C592.745,206.31,604.985,201.757,616.749,195.098z M299.744,71.367
			c0-11.326-0.113-21.957,0.063-32.584c0.059-3.57-0.87-5.07-4.746-4.993c-10.994,0.219-21.999,0.247-32.991-0.011
			c-4.176-0.098-5.018,1.558-4.94,5.301c0.207,9.994-0.003,19.996,0.117,29.993c0.032,2.614-0.723,3.837-3.434,4.353
			c-5.06,0.964-10.014,2.479-15.063,3.516c-2.76,0.567-3.981,1.849-3.933,4.719c0.113,6.664,0.15,13.333-0.009,19.995
			c-0.087,3.624,1.649,4.587,4.901,4.511c5.619-0.132,11.243-0.036,17.49-0.036c0,2.332-0.001,4.114,0,5.896
			c0.014,17.331-0.269,34.668,0.124,51.99c0.401,17.63,6.008,32.681,24.14,39.377c15.165,5.6,30.735,5.084,46.174,0.828
			c1.394-0.384,3.188-2.57,3.25-3.987c0.336-7.651,0.125-15.325,0.227-22.989c0.044-3.28-1.429-4.405-4.592-4.251
			c-4.317,0.21-8.676,0.458-12.969,0.107c-9.399-0.768-13.717-5.584-13.744-14.932c-0.044-15.664-0.022-31.329,0.002-46.993
			c0.002-1.579,0.211-3.158,0.346-5.042c8.187,0,15.832,0.007,23.477-0.002c7.045-0.008,7.092-0.051,7.104-6.865
			c0.013-6.999,0.014-13.998-0.001-20.997c-0.013-6.497-0.379-6.882-6.704-6.899C316.22,71.35,308.402,71.367,299.744,71.367z
			 M222.216,137.499c0-19.986-0.095-39.973,0.073-59.957c0.037-4.43-1.248-6.35-5.94-6.246c-10.487,0.233-20.985,0.173-31.476,0.026
			c-4.317-0.06-5.83,1.694-5.819,5.976c0.1,39.972,0.049,79.944,0.071,119.915c0.003,5.49,1.198,6.662,6.822,6.694
			c9.826,0.056,19.653,0.038,29.479,0.009c6.244-0.018,6.765-0.519,6.777-6.958C222.238,177.137,222.216,157.318,222.216,137.499z
			 M224.002,37.501c0.048-12.901-10.419-23.309-23.55-23.417c-13.047-0.107-23.857,10.199-24.107,22.983
			c-0.251,12.828,10.755,23.747,23.92,23.731C213.297,60.783,223.954,50.323,224.002,37.501z"/>
		<path d="M155.799,142.242c0,15-0.13,30.002,0.089,44.998c0.057,3.893-1.273,6.058-4.673,7.805
			c-20.443,10.505-42.227,14.076-64.907,12.37c-8.762-0.659-17.627-1.769-26.113-3.963c-28.798-7.444-46.493-26.508-53.68-54.911
			c-7.67-30.311-7.167-60.866,1.777-90.839C18.117,24.781,41.119,6.887,75.008,3.253c20.678-2.218,41.293-1.161,61.398,4.745
			c12.023,3.532,11.954,3.707,8.967,15.725c-1.525,6.136-2.979,12.29-4.468,18.435c-1.39,5.735-1.882,6.056-7.467,4.36
			c-15.216-4.621-30.75-5.596-46.473-3.908c-20.999,2.253-33.552,14.28-38.318,34.428c-4.875,20.612-4.914,41.353,1.247,61.72
			c5.995,19.818,18.929,29.216,39.557,29.381c6.475,0.052,12.955-0.709,19.436-1.008c2.706-0.125,3.774-1.323,3.749-4.068
			c-0.095-10.666-0.13-21.334,0.018-31.999c0.045-3.275-1.463-3.868-4.263-3.811c-6.331,0.127-12.671-0.12-18.997,0.091
			c-3.988,0.133-5.741-1.104-5.62-5.391c0.249-8.826,0.207-17.667,0.016-26.496c-0.086-3.985,1.574-5.231,5.352-5.213
			c20.333,0.097,40.667,0.121,60.999-0.015c4.438-0.03,5.762,1.805,5.719,6.015C155.703,111.575,155.798,126.909,155.799,142.242z"
			/>
		<path d="M394.153,120.547c0,2.583,0,4.558,0,6.533c0,23.496,0.008,46.992-0.006,70.489c-0.004,6.258-0.112,6.345-6.528,6.352
			c-10.332,0.01-20.666-0.123-30.994,0.064c-4.108,0.075-5.574-1.417-5.568-5.539c0.083-60.99,0.094-121.98-0.018-182.97
			c-0.008-4.495,1.698-5.755,5.908-5.675c10.495,0.198,20.999,0.224,31.492-0.012c4.33-0.097,5.835,1.31,5.795,5.727
			c-0.185,20.162-0.08,40.326-0.079,60.489c0,1.806,0,3.613,0,5.81c21.147,0,41.856,0,63.325,0c0-1.956,0-3.88,0-5.805
			c0-19.663-0.007-39.327,0.005-58.99c0.004-7.111,0.055-7.148,7.341-7.154c9.832-0.008,19.669,0.187,29.493-0.083
			c4.693-0.129,6.461,1.296,6.451,6.22c-0.13,60.657-0.119,121.314-0.016,181.97c0.008,4.589-1.581,6.142-6.143,6.031
			c-10.492-0.257-20.998-0.247-31.491-0.003c-4.448,0.104-5.808-1.622-5.782-5.864c0.147-23.995,0.014-47.992,0.235-71.986
			c0.041-4.421-0.945-6.055-5.731-5.975c-17.326,0.29-34.659,0.108-51.99,0.124C398.213,120.302,396.576,120.438,394.153,120.547z"
			/>
		<path d="M702.234,194.174c-0.205,1.602-0.385,2.582-0.448,3.571c-0.295,4.667-2.443,6.621-7.395,6.286
			c-6.466-0.437-12.992-0.304-19.476-0.039c-4.428,0.181-5.82-1.61-5.777-5.87c0.158-15.488,0.062-30.978,0.062-46.467
			c0-44.635-0.001-89.271,0.001-133.906c0-7.876,0.005-7.879,8.109-7.882c9.826-0.003,19.657,0.167,29.477-0.075
			c4.414-0.109,5.825,1.576,5.791,5.84c-0.142,18.153-0.059,36.307-0.058,54.461c0,1.806,0,3.613,0,5.222
			c7.979-2.338,15.443-5.425,23.19-6.544c7.799-1.126,16.052-1.357,23.807-0.116c20.992,3.361,33.387,16.766,37.953,40.755
			c3.94,20.702,3.18,41.513-2.026,61.921c-6.286,24.646-20.877,35.738-47.006,36.251c-15.809,0.31-30.744-3.055-43.952-12.316
			C703.97,194.901,703.339,194.701,702.234,194.174z M711.746,138c0,8.496,0.195,16.999-0.094,25.485
			c-0.119,3.484,1.269,5.09,4.243,6.274c8.052,3.204,16.3,4.53,24.941,3.416c6.431-0.829,10.973-4.212,12.857-10.288
			c1.465-4.724,2.766-9.757,2.716-14.639c-0.108-10.583-0.109-21.349-2.058-31.681c-1.963-10.408-9.185-15.318-19.604-14.659
			c-6.512,0.412-12.922,2.575-19.352,4.066c-2.841,0.659-3.78,2.56-3.717,5.54C711.868,120.339,711.747,129.171,711.746,138z"/>
		<path d="M616.749,195.098c-11.764,6.659-24.004,11.212-37.32,12.349c-11.056,0.944-21.995,0.228-32.54-3.439
			c-17.453-6.07-24.145-20.016-24.527-36.929c-0.685-30.308-0.24-60.641-0.338-90.964c-0.011-3.347,1.617-4.339,4.629-4.326
			c11.329,0.049,22.661,0.137,33.988-0.036c4.837-0.074,4.767,2.926,4.764,6.281c-0.023,24.659-0.017,49.317-0.001,73.976
			c0.002,2.33,0.032,4.669,0.237,6.987c0.913,10.32,4.824,14.188,15.181,14.653c3.13,0.141,6.336-0.22,9.435-0.765
			c13.299-2.336,14.82-4.211,14.82-17.566c0-25.658-0.004-51.317,0.003-76.975c0.002-6.316,0.193-6.524,6.391-6.538
			c10.33-0.024,20.662,0.114,30.989-0.064c4.064-0.07,5.566,1.331,5.555,5.504c-0.111,40.486-0.1,80.973-0.014,121.46
			c0.008,3.871-1.347,5.42-5.253,5.299c-5.992-0.185-12.008-0.269-17.988,0.061c-4.495,0.248-7.066-1.001-7.055-5.882
			C617.708,197.252,617.145,196.32,616.749,195.098z"/>
		<path d="M299.744,71.367c8.658,0,16.476-0.016,24.293,0.005c6.325,0.017,6.691,0.402,6.704,6.899
			c0.014,6.999,0.013,13.998,0.001,20.997c-0.012,6.815-0.059,6.857-7.104,6.865c-7.645,0.009-15.291,0.002-23.477,0.002
			c-0.135,1.884-0.344,3.463-0.346,5.042c-0.024,15.664-0.046,31.329-0.002,46.993c0.026,9.348,4.345,14.164,13.744,14.932
			c4.293,0.351,8.651,0.103,12.969-0.107c3.163-0.154,4.636,0.971,4.592,4.251c-0.103,7.664,0.108,15.338-0.227,22.989
			c-0.062,1.417-1.857,3.603-3.25,3.987c-15.439,4.255-31.009,4.772-46.174-0.828c-18.132-6.696-23.739-21.747-24.14-39.377
			c-0.394-17.322-0.111-34.659-0.124-51.99c-0.001-1.782,0-3.564,0-5.896c-6.246,0-11.87-0.095-17.49,0.036
			c-3.252,0.076-4.988-0.887-4.901-4.511c0.159-6.662,0.122-13.331,0.009-19.995c-0.049-2.87,1.172-4.152,3.933-4.719
			c5.049-1.037,10.002-2.553,15.063-3.516c2.711-0.516,3.465-1.739,3.434-4.353c-0.121-9.997,0.09-19.999-0.117-29.993
			c-0.078-3.743,0.764-5.399,4.94-5.301c10.992,0.259,21.997,0.23,32.991,0.011c3.876-0.077,4.805,1.423,4.746,4.993
			C299.631,49.41,299.744,60.041,299.744,71.367z"/>
		<path d="M222.216,137.499c0,19.819,0.022,39.639-0.013,59.458c-0.011,6.439-0.533,6.94-6.777,6.958
			c-9.826,0.029-19.653,0.047-29.479-0.009c-5.624-0.032-6.819-1.204-6.822-6.694c-0.022-39.972,0.029-79.944-0.071-119.915
			c-0.011-4.282,1.503-6.036,5.819-5.976c10.491,0.147,20.988,0.207,31.476-0.026c4.692-0.104,5.977,1.816,5.94,6.246
			C222.122,97.526,222.216,117.513,222.216,137.499z"/>
		<path d="M224.002,37.501c-0.048,12.822-10.705,23.282-23.737,23.297c-13.165,0.016-24.171-10.903-23.92-23.731
			c0.25-12.784,11.06-23.09,24.107-22.983C213.583,14.191,224.051,24.6,224.002,37.501z"/>
		<path fill="#FFFFFF" d="M711.747,138c0-8.829,0.121-17.661-0.067-26.486c-0.064-2.98,0.876-4.881,3.717-5.54
			c6.43-1.491,12.84-3.654,19.352-4.066c10.419-0.659,17.641,4.25,19.604,14.659c1.949,10.332,1.951,21.098,2.058,31.681
			c0.05,4.881-1.251,9.915-2.716,14.639c-1.884,6.076-6.426,9.459-12.857,10.288c-8.642,1.114-16.889-0.212-24.941-3.416
			c-2.974-1.183-4.362-2.79-4.243-6.274C711.941,154.999,711.746,146.496,711.747,138z"/>
	</g>
</g>
</svg>
