<?xml version="1.0" encoding="utf-8"?>
<!-- Generator: Adobe Illustrator 17.0.0, SVG Export Plug-In . SVG Version: 6.00 Build 0)  -->
<!DOCTYPE svg PUBLIC "-//W3C//DTD SVG 1.1//EN" "http://www.w3.org/Graphics/SVG/1.1/DTD/svg11.dtd">
<svg version="1.1" id="Layer_1" xmlns="http://www.w3.org/2000/svg" xmlns:xlink="http://www.w3.org/1999/xlink" x="0px" y="0px"
	 width="2000px" height="609px" viewBox="0 0 2000 609" enable-background="new 0 0 2000 609" xml:space="preserve">
<g>
	<g>
		<path fill="#FFFFFF" fill-opacity="0.0" d="M1,1c666.667,0,1333.333,0,2000,0c0,203,0,406,0,609c-666.667,0-1333.333,0-2000,0C1,407,1,204,1,1z
			 M777.138,15.195c0,161.298,0,322.165,0,483.113c10.982,0,21.555,0,32.82,0c0-23.825,0-47.301,0-71.962
			c1.444,1.842,2.079,2.574,2.629,3.365c9.744,14.01,20.748,26.932,33.742,38.025c35.987,30.721,77.612,45.164,124.508,37.597
			c58.567-9.449,99.912-43.367,124.886-96.757c17.342-37.074,20.458-76.375,13.263-116.303
			c-10.053-55.793-39.582-98.246-90.851-123.37c-46.636-22.855-94.137-23.109-140.65,1.305
			c-26.564,13.943-46.31,35.57-63.572,59.645c-1.066,1.486-2.19,2.931-3.287,4.395c-0.331-0.165-0.662-0.329-0.993-0.494
			c0-72.763,0-145.526,0-218.558C798.632,15.195,788.045,15.195,777.138,15.195z M1209.724,427.707
			c0.361-0.094,0.721-0.187,1.082-0.28c0.596,0.76,1.231,1.493,1.782,2.285c9.744,14.01,20.748,26.932,33.742,38.025
			c35.987,30.721,77.583,45.015,124.514,37.624c54.8-8.63,94.892-39.521,120.748-88.259c20.848-39.297,25.12-81.527,17.378-124.829
			c-9.978-55.805-39.525-98.341-90.848-123.35c-48.835-23.797-98.128-23.205-145.836,4.264
			c-24.122,13.889-42.327,34.262-58.376,56.668c-1.064,1.486-2.188,2.929-3.284,4.392c-0.332-0.165-0.664-0.331-0.995-0.496
			c0-72.763,0-145.525,0-218.475c-11.131,0-21.844,0-32.493,0c0,161.219,0,322.087,0,483.032c10.983,0,21.556,0,32.585,0
			C1209.724,474.537,1209.724,451.122,1209.724,427.707z M3.095,161.177c0,148.512,0,296.58,0,444.839c10.964,0,21.652,0,32.929,0
			c0-59.243,0-118.068,0-176.411c9.768,11.123,18.819,22.929,29.378,33.182c36.675,35.614,81.012,50.445,131.337,42.605
			c54.393-8.473,94.33-39.012,120.392-87.234c20.656-38.219,25.481-79.469,18.632-121.769
			c-9.981-61.644-42.712-107.251-100.93-131.689c-46.261-19.42-92.382-17.123-136.319,8.384
			c-24.084,13.981-42.335,34.259-58.432,56.626c-1.105,1.536-2.278,3.023-3.419,4.533c-0.328-0.109-0.656-0.218-0.983-0.327
			c0-24.204,0-48.408,0-72.74C24.603,161.177,14.133,161.177,3.095,161.177z M712.527,289.722
			c-3.019-10.876-5.359-21.117-8.701-31.021c-12.814-37.96-34.919-68.866-70.552-88.469
			c-66.535-36.605-151.834-16.244-197.025,46.901c-33.6,46.949-42.063,99.366-30.72,155.041
			c9.819,48.191,35.3,86.847,78.425,111.239c60.382,34.153,121.1,32.398,180.377-3.91c15.959-9.775,29.482-22.655,42.708-36.562
			c-7.643-6.477-14.97-12.686-22.136-18.759c-7.295,6.449-14.1,13.082-21.527,18.926c-33.777,26.577-72.348,37.883-114.68,31.182
			c-53.398-8.452-87.381-40.85-104.686-91.425c-2.009-5.871-3.227-12.013-4.869-18.25
			C530.68,339.538,621.27,314.721,712.527,289.722z M1985.323,291.524c-1.9-7.525-3.476-14.492-5.446-21.346
			c-1.744-6.069-3.694-12.1-5.947-17.997c-29.08-76.096-103.198-113.997-181.681-92.061c-43.574,12.179-74.962,40.264-96.087,79.725
			c-21.826,40.773-26.795,84.335-18.5,129.476c6.428,34.981,21.614,65.856,47.304,90.654
			c47.13,45.492,103.252,56.691,165.458,40.388c34.042-8.922,61.1-29.611,85.158-54.557c0.878-0.911,1.625-1.949,2.564-3.087
			c-7.614-6.418-14.953-12.604-22.784-19.204c-3.384,3.614-6.326,7.034-9.569,10.14c-3.243,3.106-6.667,6.054-10.219,8.804
			c-39.479,30.569-83.769,41.956-132.009,28.153c-52.017-14.883-80.877-52.322-92.536-104.078c-0.131-0.582,0.129-1.252,0.238-2.14
			C1802.476,340.142,1893.589,315.916,1985.323,291.524z M1577.168,15.252c0,160.699,0,321.052,0,481.35c11.015,0,21.59,0,32.358,0
			c0-160.581,0-320.818,0-481.35C1598.688,15.252,1588.102,15.252,1577.168,15.252z"/>
		<path d="M777.138,15.195c10.907,0,21.494,0,32.496,0c0,73.032,0,145.795,0,218.558c0.331,0.165,0.662,0.329,0.993,0.494
			c1.097-1.464,2.221-2.909,3.287-4.395c17.262-24.075,37.008-45.702,63.572-59.645c46.513-24.414,94.014-24.159,140.65-1.305
			c51.269,25.125,80.798,67.578,90.851,123.37c7.194,39.928,4.079,79.229-13.263,116.303
			c-24.974,53.389-66.319,87.308-124.886,96.757c-46.896,7.566-88.521-6.876-124.508-37.597
			c-12.994-11.093-23.998-24.015-33.742-38.025c-0.55-0.791-1.185-1.523-2.629-3.365c0,24.661,0,48.137,0,71.962
			c-11.265,0-21.838,0-32.82,0C777.138,337.36,777.138,176.492,777.138,15.195z M1077.434,340.022
			c0.041-31.076-3.351-53.232-12.506-74.119c-20.218-46.127-55.051-73.993-105.392-79.488
			c-46.984-5.129-86.068,12.458-116.677,47.807c-30.358,35.06-39.618,76.555-32.918,121.827
			c11.723,79.212,83.663,127.292,149.156,119.007c36.903-4.668,67.636-20.389,90.191-50.443
			C1069.916,397.124,1077.275,365.434,1077.434,340.022z"/>
		<path d="M1209.724,427.707c0,23.415,0,46.831,0,70.6c-11.029,0-21.602,0-32.585,0c0-160.945,0-321.813,0-483.032
			c10.649,0,21.362,0,32.493,0c0,72.95,0,145.713,0,218.475c0.332,0.165,0.664,0.331,0.995,0.496
			c1.096-1.463,2.22-2.906,3.284-4.392c16.05-22.406,34.255-42.779,58.376-56.668c47.708-27.469,97-28.061,145.836-4.264
			c51.323,25.009,80.87,67.545,90.848,123.35c7.742,43.302,3.469,85.532-17.378,124.829
			c-25.857,48.738-65.949,79.629-120.748,88.259c-46.931,7.391-88.527-6.904-124.514-37.624
			c-12.995-11.093-23.998-24.015-33.742-38.025c-0.551-0.792-1.186-1.525-1.782-2.285
			C1210.446,427.52,1210.085,427.613,1209.724,427.707z M1477.448,338.459c-0.004-27.589-2.776-47.834-10.381-67.117
			c-19.298-48.934-54.512-78.854-107.176-84.868c-47.16-5.385-86.406,12.33-117.121,47.855
			c-30.335,35.085-39.547,76.597-32.81,121.857c11.775,79.099,83.654,127.207,149.274,118.856
			c36.898-4.696,67.617-20.46,90.137-50.54C1469.967,396.993,1477.299,365.294,1477.448,338.459z"/>
		<path d="M3.095,161.177c11.039,0,21.508,0,32.585,0c0,24.332,0,48.536,0,72.74c0.328,0.109,0.656,0.218,0.983,0.327
			c1.141-1.51,2.314-2.997,3.419-4.533c16.097-22.367,34.348-42.645,58.432-56.626c43.937-25.506,90.058-27.803,136.319-8.384
			c58.218,24.439,90.949,70.045,100.93,131.689c6.849,42.301,2.024,83.55-18.632,121.769
			c-26.062,48.222-65.999,78.761-120.392,87.234c-50.325,7.839-94.663-6.992-131.337-42.605
			c-10.559-10.253-19.61-22.059-29.378-33.182c0,58.343,0,117.169,0,176.411c-11.277,0-21.965,0-32.929,0
			C3.095,457.757,3.095,309.689,3.095,161.177z M174.068,185.328c-39.993,0.685-71.045,13.363-96.631,38.09
			c-38.78,37.477-51.275,83.791-42.496,136.146c12.761,76.104,83.016,123.777,148.572,115.447
			c44.336-5.634,79.55-26.345,100.115-66.565c25.472-49.816,25.586-101.463,1.142-151.544
			C261.82,209.877,221.845,187.253,174.068,185.328z"/>
		<path d="M712.527,289.722c-91.257,24.999-181.847,49.816-273.387,74.892c1.643,6.237,2.86,12.379,4.869,18.25
			c17.305,50.574,51.288,82.972,104.686,91.425c42.331,6.701,80.902-4.605,114.68-31.182c7.427-5.844,14.232-12.477,21.527-18.926
			c7.166,6.073,14.493,12.282,22.136,18.759c-13.227,13.907-26.749,26.787-42.708,36.562
			c-59.277,36.308-119.994,38.063-180.377,3.91c-43.125-24.392-68.606-63.047-78.425-111.239
			c-11.343-55.675-2.881-108.092,30.72-155.041c45.191-63.144,130.491-83.505,197.025-46.901
			c35.633,19.604,57.738,50.51,70.552,88.469C707.169,268.604,709.508,278.846,712.527,289.722z M437.827,333.23
			c78.965-20.917,157.458-41.71,236.351-62.608c-2.186-5.565-3.967-10.579-6.114-15.43c-2.151-4.861-4.477-9.666-7.051-14.316
			c-38.087-68.797-121.218-73.327-169.838-35.035c-28.435,22.395-44.258,52.159-51.175,87.176
			C437.405,306.151,437.112,319.38,437.827,333.23z"/>
		<path d="M1985.323,291.524c-91.734,24.392-182.847,48.618-274.055,72.87c-0.109,0.889-0.369,1.558-0.238,2.14
			c11.659,51.756,40.519,89.195,92.536,104.078c48.24,13.802,92.531,2.416,132.009-28.153c3.552-2.75,6.976-5.698,10.219-8.804
			c3.243-3.106,6.184-6.526,9.569-10.14c7.83,6.6,15.169,12.786,22.784,19.204c-0.939,1.138-1.686,2.176-2.564,3.087
			c-24.058,24.945-51.116,45.635-85.158,54.557c-62.206,16.303-118.329,5.104-165.458-40.388
			c-25.69-24.797-40.875-55.672-47.304-90.654c-8.296-45.141-3.327-88.704,18.5-129.476c21.124-39.461,52.513-67.546,96.087-79.725
			c78.483-21.936,152.6,15.964,181.681,92.061c2.254,5.897,4.204,11.928,5.947,17.997
			C1981.846,277.033,1983.422,284,1985.323,291.524z M1945.478,270.621c-2.316-5.903-4.279-11.365-6.573-16.686
			c-37.278-86.462-137.878-90.933-189.748-36.261c-25.155,26.514-37.575,58.456-40.165,94.512
			c-0.492,6.847-0.071,13.759-0.071,21.101C1788.167,312.294,1866.568,291.525,1945.478,270.621z"/>
		<path d="M1577.168,15.252c10.934,0,21.52,0,32.358,0c0,160.531,0,320.768,0,481.35c-10.768,0-21.344,0-32.358,0
			C1577.168,336.303,1577.168,175.95,1577.168,15.252z"/>
		<path fill="#FFFFFF" d="M1077.434,340.022c-0.159,25.412-7.518,57.102-28.147,84.591c-22.554,30.054-53.287,45.775-90.191,50.443
			c-65.494,8.285-137.433-39.795-149.156-119.007c-6.7-45.272,2.56-86.767,32.918-121.827
			c30.609-35.349,69.693-52.936,116.677-47.807c50.34,5.496,85.174,33.362,105.392,79.488
			C1074.083,286.79,1077.475,308.946,1077.434,340.022z"/>
		<path fill="#FFFFFF" d="M1477.448,338.459c-0.149,26.835-7.481,58.534-28.076,86.044c-22.52,30.08-53.239,45.844-90.137,50.54
			c-65.62,8.351-137.499-39.758-149.274-118.856c-6.737-45.26,2.475-86.772,32.81-121.857
			c30.715-35.524,69.961-53.239,117.121-47.855c52.664,6.013,87.877,35.934,107.176,84.868
			C1474.672,290.625,1477.444,310.87,1477.448,338.459z"/>
		<path fill="#FFFFFF" d="M174.068,185.328c47.777,1.925,87.751,24.55,110.702,71.573c24.443,50.081,24.329,101.728-1.142,151.544
			c-20.565,40.22-55.779,60.931-100.115,66.565c-65.556,8.331-135.811-39.343-148.572-115.447
			c-8.779-52.355,3.716-98.669,42.496-136.146C103.024,198.691,134.076,186.013,174.068,185.328z"/>
		<path fill="#FFFFFF" d="M437.827,333.23c-0.715-13.85-0.422-27.079,2.173-40.213c6.917-35.017,22.74-64.781,51.175-87.176
			c48.62-38.292,131.751-33.762,169.838,35.035c2.574,4.65,4.9,9.455,7.051,14.316c2.147,4.852,3.928,9.865,6.114,15.43
			C595.285,291.52,516.792,312.313,437.827,333.23z"/>
		<path fill="#FFFFFF" d="M1945.478,270.621c-78.91,20.904-157.311,41.673-236.557,62.666c0-7.342-0.421-14.254,0.071-21.101
			c2.59-36.057,15.01-67.998,40.165-94.512c51.87-54.671,152.47-50.201,189.748,36.261
			C1941.199,259.255,1943.162,264.718,1945.478,270.621z"/>
	</g>
</g>
</svg>
