<?xml version="1.0" encoding="utf-8"?>
<!-- Generator: Adobe Illustrator 17.0.0, SVG Export Plug-In . SVG Version: 6.00 Build 0)  -->
<!DOCTYPE svg PUBLIC "-//W3C//DTD SVG 1.1//EN" "http://www.w3.org/Graphics/SVG/1.1/DTD/svg11.dtd">
<svg version="1.1" id="Layer_1" xmlns="http://www.w3.org/2000/svg" xmlns:xlink="http://www.w3.org/1999/xlink" x="0px" y="0px"
	 width="246px" height="89px" viewBox="0 0 246 89" enable-background="new 0 0 246 89" xml:space="preserve">
<g>
	<g>
		<path fill="#FEFEFE" fill-opacity="0.0" d="M113.937,15.441c29.629,0,59.259,0.054,88.887-0.087c2.849-0.014,3.217,0.758,3.202,3.326
			c-0.117,20.252-0.082,40.505-0.037,60.758c0.004,1.863,0.11,2.856-2.517,2.851c-59.883-0.115-119.767-0.105-179.65-0.025
			c-2.189,0.003-2.447-0.579-2.439-2.553c0.084-20.628,0.097-41.256-0.015-61.883c-0.012-2.191,0.582-2.443,2.556-2.438
			C53.928,15.464,83.932,15.441,113.937,15.441z"/>
		<path fill="#C62A2C" d="M46.244,40.32c15.699-8.111,32.254-10.861,49.799-8.509c11.209,1.503,22.167,4.043,33.083,6.842
			c10.369,2.659,20.757,3.562,31.584,0.535c-1.612,1.882-1.556,2.126-3.141,2.489c-3.1,0.71-4.06,2.469-3.059,5.801
			c1.713-0.781,3.643-0.887,5.187,0.521c1.687,1.538,1.936,3.72,1.97,5.833c0.04,2.48,0.306,4.988-0.571,7.425
			c-1.002,2.785-2.932,3.284-5.761,3.406c-5.261,0.227-5.191-2.715-4.943-6.501c0.261-3.983-0.036-7.999,0.097-11.995
			c0.067-2.013-0.606-2.488-2.571-2.419c-3.359,0.119-6.761,0.093-10.086-0.334c-2.232-0.286-2.864,0.225-2.854,2.404
			c0.021,4.364-0.077,8.733-0.311,13.091c-0.197,3.67-2.378,5.859-5.458,5.912c-1.267,0.022-2.309-0.209-2.284-1.737
			c0.018-1.112-0.581-2.653,1.58-2.57c2.064,0.08,2.411-1.441,2.426-3.024c0.042-4.375-0.03-8.751,0.04-13.125
			c0.023-1.426-0.48-1.73-1.881-2c-10.34-1.992-20.566-4.62-31.062-5.726c-8.085-0.852-16.233-0.857-24.3-0.079
			c-8.987,0.867-18.041,1.622-26.727,4.432C46.207,41.383,46.135,40.953,46.244,40.32z"/>
		<path fill="#4C455C" d="M55.997,32.823c15.685-8.008,32.182-10.785,49.716-8.55c14.419,1.838,28.277,6.171,42.52,8.714
			c6.679,1.193,13.347,0.851,19.947-0.755c0.702-0.171,1.443-0.18,3.008-0.362c-4.974,4.232-10.305,5.567-15.67,6.822
			c-10.506,2.458-20.396-0.832-30.311-3.42c-13.239-3.455-26.541-6.561-40.311-6.261c-9.544,0.208-18.953,1.787-28.144,4.479
			C55.957,33.883,55.889,33.453,55.997,32.823z"/>
		<path fill="#C62A2C" d="M67.911,24.389c8.946-4.879,18.334-7.806,28.672-8.309c16.177-0.787,31.359,3.687,46.605,7.839
			c9.111,2.481,18.159,2.264,27.396,1.49c4.72-0.396,9.14-2.013,13.843-2.462c-5.731,4.798-12.603,6.747-19.682,8.255
			c-10.875,2.316-21.229-0.662-31.553-3.251c-11.798-2.959-23.657-5.74-35.79-6.342c-9.415-0.467-18.824,0.885-27.947,3.592
			C68.552,25.67,67.833,25.787,67.911,24.389z"/>
		<path fill="#4D465D" d="M84.162,52.855c-1.31-1.97-2.641-1.498-3.787-1.477c-1.076,0.02-2.022,0.136-1.937-1.4
			c0.059-1.078-0.169-1.974,1.415-2.482c4.299-1.379,7.824,0.531,8.183,5.014c0.277,3.461,0.138,6.957,0.144,10.438
			c0.001,0.685,0.066,1.976-0.809,1.709c-2.676-0.817-5.252,0.91-7.902-0.007c-3.397-1.176-2.751-4.003-2.767-6.504
			c-0.017-2.566,0.806-4.679,3.813-5.015C81.578,53.011,82.649,52.966,84.162,52.855z"/>
		<path fill="#4D465D" d="M42.19,55.867c0.827-2.965-1.07-7.219,4.011-8.395c4.69-1.085,7.477,1.227,7.532,5.464
			c0.067,5.124,0.206,5.089-4.959,5.297c-0.85,0.034-2.372-0.683-2.437,0.78c-0.069,1.552,1.412,1.851,2.73,1.845
			c1.369-0.006,3.254-1.459,3.188,1.683c-0.055,2.587-1.713,2.322-3.29,2.397C43.719,65.189,42.202,63.164,42.19,55.867z"/>
		<path fill="#4D465D" d="M62.068,52.126c-0.788-1.172-1.994-0.735-3.063-0.774c-0.947-0.034-2.066,0.412-2.175-1.209
			c-0.093-1.371,0.122-2.264,1.695-2.758c4.311-1.353,7.798,0.934,7.904,5.444c0.073,3.116-0.062,6.237,0.042,9.351
			c0.068,2.027-0.368,3.225-2.693,2.409c-0.584-0.205-1.077-0.492-1.753-0.202c-2.558,1.1-5.516,0.983-6.34-1.658
			c-0.92-2.95-1.908-6.675,1.693-9.127C58.722,52.411,61.211,54.86,62.068,52.126z"/>
		<path fill="#4D465D" d="M125.447,55.772c0.76,2.803-1.779,2.479-4.303,2.493c-0.997,0.006-2.913-1.025-2.946,0.977
			c-0.032,1.969,1.812,1.567,3.143,1.509c1.017-0.044,2.343-0.839,2.403,1.151c0.043,1.452,0.008,2.632-1.908,3.006
			c-4.555,0.89-7.398-0.861-7.926-5.42c-0.27-2.334-0.187-4.742,0.021-7.091c0.31-3.491,2.334-5.385,5.905-5.281
			c3.64,0.106,5.461,1.986,5.224,5.722C125.022,53.445,125.212,54.065,125.447,55.772z"/>
		<path fill="#C72B2D" d="M148.205,55.806c-0.001,1.12-0.011,2.24,0.001,3.359c0.039,3.379-1.457,5.4-4.972,5.638
			c-3.4,0.231-5.695-1.521-6.126-5.058c-0.284-2.331-0.281-4.732-0.094-7.078c0.341-4.285,2.141-5.851,6.153-5.724
			c3.618,0.115,4.983,1.805,5.038,6.249C148.214,54.064,148.205,54.935,148.205,55.806z"/>
		<path fill="#4D465C" d="M90.443,56.349c0-0.872,0-1.745,0-2.617c0-6.112,0.999-7.142,6.985-6.557
			c2.368,0.232,4.279,1.381,4.269,4.249c-0.014,3.738-0.01,7.477,0.005,11.215c0.005,1.195-0.004,2.162-1.702,2.202
			c-1.728,0.041-2.114-0.694-2.077-2.221c0.073-2.989,0.005-5.981,0.025-8.972c0.008-1.296-0.433-2.257-1.846-2.279
			c-1.409-0.022-1.91,0.904-1.905,2.215c0.013,2.866-0.008,5.732,0.004,8.599c0.006,1.398,0.201,2.727-1.996,2.664
			c-1.997-0.057-1.756-1.284-1.76-2.518C90.439,60.337,90.443,58.343,90.443,56.349z"/>
		<path fill="#4F495F" d="M23.694,53.708c-0.064-2.243,0.018-4.452,0.688-6.641c1.026-3.352,3.908-5.126,7.386-4.519
			c1.626,0.284,2.345,0.982,2.316,2.716c-0.037,2.247-1.346,1.465-2.533,1.323c-2.401-0.287-3.716,0.729-3.711,3.255
			c0.005,2.366-0.067,4.733-0.054,7.099c0.015,2.816,1.061,4.536,4.261,3.764c1.073-0.259,1.995-0.411,2.011,1.184
			c0.013,1.314-0.04,2.415-1.624,2.918c-3.453,1.098-6.916-0.637-7.991-4.092C23.73,58.423,23.584,56.082,23.694,53.708z"/>
		<path fill="#C72E30" d="M172.369,61.689c-0.984,2.339-2.777,3.257-5.273,3.295c-3.053,0.047-4.503-1.008-3.487-4.255
			c0.742,0.156,1.441,0.343,2.152,0.444c1.047,0.148,2.111-0.01,2.534-1.073c0.416-1.045-0.332-1.911-1.034-2.586
			c-0.793-0.762-1.883-1.246-2.574-2.075c-1.685-2.022-1.86-4.338-0.414-6.528c1.453-2.199,3.821-2.005,6.052-1.733
			c1.492,0.182,1.452,1.415,1.453,2.577c0.001,1.306-0.591,1.304-1.64,1.011c-1.045-0.291-2.106,0.062-2.335,1.231
			c-0.2,1.018,0.387,1.98,1.289,2.474c2.762,1.511,3.645,3.883,3.375,6.854C172.434,61.447,172.402,61.568,172.369,61.689z"/>
		<path fill="#4F485E" d="M103.873,55.787c0.074-1.609-0.06-3.261,0.265-4.818c0.664-3.183,3.646-4.57,6.563-3.471
			c1.229,0.463,1.353,1.159,1.374,2.223c0.026,1.284-0.463,1.615-1.754,1.685c-4.625,0.252-2.079,3.859-2.549,5.971
			c-0.404,1.816,0.031,3.692,2.609,3.285c1.458-0.23,1.698,0.308,1.694,1.54c-0.004,1.376-0.267,2.38-1.853,2.726
			c-3.069,0.669-5.683-1.011-6.171-4.307c-0.234-1.578-0.04-3.219-0.04-4.832C103.966,55.789,103.919,55.788,103.873,55.787z"/>
		<path fill="#4C455C" d="M40.184,40.678c0,7.743-0.011,15.042,0.011,22.34c0.004,1.208-0.366,1.835-1.707,1.801
			c-1.226-0.031-2.311-0.116-2.315-1.677c-0.018-6.588-0.051-13.177,0.02-19.765C36.216,41.303,38.183,41.586,40.184,40.678z"/>
		<path fill="#4E485E" d="M199.506,56.954c0,2.075,0,4.15,0,6.225c0,0.925-0.071,1.765-1.339,1.759
			c-1.365-0.007-1.197-0.986-1.204-1.834c-0.018-2.115-0.006-4.23-0.006-6.345c-0.498,0.001-0.997,0.002-1.495,0.003
			c0,2.123,0.009,4.245-0.004,6.368c-0.005,0.863,0.125,1.825-1.234,1.806c-1.273-0.017-1.304-0.883-1.31-1.794
			c-0.004-0.625-0.006-1.249-0.009-1.874c-0.036-7.255,1.006-8.21,8.158-7.203c1.22,0.172,2.429,0.78,2.457,2.349
			c0.042,2.373,0.034,4.746,0.038,7.12c0.002,0.876-0.366,1.422-1.328,1.36c-1.059-0.069-0.999-0.868-1.07-1.617
			c-0.205-2.164,0.504-4.449-0.591-6.497C200.214,56.837,199.86,56.895,199.506,56.954z"/>
		<path fill="#4D465D" d="M68.689,56.227c0-1.122,0.119-2.259-0.022-3.363c-0.453-3.558,0.069-6.134,4.635-5.192
			c0.679,0.14,1.762-1.265,2.009,0.324c0.168,1.082,0.899,2.937-0.591,3.236c-2.558,0.513-1.87,2.287-1.946,3.73
			c-0.124,2.362-0.037,4.735-0.034,7.104c0.001,1.416,0.069,2.704-2.028,2.78c-2.168,0.078-2.049-1.205-2.03-2.635
			C68.709,60.216,68.69,58.221,68.689,56.227z"/>
		<path fill="#4E475E" d="M191.71,59.676c-0.004,1.727,0.263,3.543-1.44,4.747c-2.131,1.506-4.801,0.391-5.304-2.248
			c-0.301-1.581-0.251-3.171-0.182-4.793c0.105-2.444,1.609-3.405,3.522-3.41c2.23-0.006,3.64,1.334,3.413,3.843
			C191.664,58.431,191.712,59.056,191.71,59.676z"/>
		<path fill="#564F65" d="M178.21,61.209c0.169-2.077-0.095-4.288,1.228-6.071c0.87-1.173,2.281-1.919,3.499-0.64
			c1.242,1.304,0.051,1.54-1.027,2.397c-1.553,1.234-1.606,3.927,0.052,5.071c1.281,0.883,2.11,1.639,1.169,2.593
			c-0.94,0.952-2.62,0.706-3.662-0.475c-0.551-0.625-0.851-1.471-1.264-2.218c-0.265-0.148-0.352-0.295-0.263-0.44
			C178.031,61.281,178.12,61.209,178.21,61.209z"/>
		<path fill="#544E63" d="M178.21,61.209c-0.004,0.219-0.006,0.438-0.006,0.657c-0.818,1.412-1.344,3.048-3.644,2.607
			c-1.717-0.329,0.003-3.05-2.193-2.782c-0.018-0.139,0.014-0.263,0.099-0.369C174.369,60.69,176.266,59.791,178.21,61.209z"/>
		<path fill="#C9434C" d="M67.911,24.389c0.311,0.658,0.931,0.729,1.545,0.811c-1.563,0.881-3.201,1.462-5.083,1.434
			C64.825,24.505,67.054,25.596,67.911,24.389z"/>
		<path fill="#A7A4AE" d="M62.068,52.126c0.684,0.699,0.67,1.324-0.389,1.417c-1.425,0.125-2.867,0.049-4.301,0.059
			C58.569,51.926,60.872,53.785,62.068,52.126z"/>
		<path fill="#756F80" d="M55.997,32.823c0.252,0.222,0.503,0.445,0.755,0.667c-0.85,1.132-2.17,0.754-3.408,1.279
			C53.87,33.297,55.016,33.182,55.997,32.823z"/>
		<path fill="#D15660" d="M46.244,40.32c0.254,0.224,0.507,0.449,0.761,0.674c-0.87,1.1-2.18,0.79-3.435,1.282
			C44.102,40.802,45.252,40.679,46.244,40.32z"/>
		<path fill="#FBF2F3" d="M154.035,55.776c0.881-1.454-1.289-4.427,1.629-4.497c2.93-0.071,1.926,2.943,1.928,4.677
			c0.002,1.595,0.874,4.424-1.773,4.366C152.921,60.259,154.779,57.348,154.035,55.776z"/>
		<path fill="#EAE9EC" d="M82.777,56.233c1.27,0.065,1.463,0.988,1.434,2.068c-0.036,1.348-0.344,2.558-2.008,2.544
			c-1.261-0.01-1.56-0.865-1.573-2.029C80.615,57.324,81.209,56.467,82.777,56.233z"/>
		<path fill="#FEFEFE" d="M46.109,54.135c0.195-2.074,0.776-2.765,1.988-2.76c1.229,0.004,1.273,1.014,1.417,1.844
			c0.233,1.343-0.757,1.326-1.648,1.363C46.918,54.621,46.062,54.529,46.109,54.135z"/>
		<path fill="#EAEAEC" d="M62.421,57.638c0.093,1.987-0.066,3.145-1.578,3.197c-1.28,0.044-2.027-0.556-1.967-2.047
			c0.061-1.523,0.813-2.393,2.196-2.493C62.522,56.19,62.403,57.437,62.421,57.638z"/>
		<path fill="#FEFEFE" d="M121.054,52.333c0.28,2.03-0.409,2.334-1.441,2.247c-0.827-0.069-1.922,0.144-1.68-1.276
			c0.138-0.809,0.07-1.837,1.308-1.921C120.493,51.298,120.98,52.063,121.054,52.333z"/>
		<path fill="#FDFAFA" d="M144.457,56.066c-0.426,1.404,1.064,4.362-1.773,4.246c-2.538-0.104-1.687-3.047-1.957-4.866
			c-0.07-0.468,0.126-0.981,0.225-1.469c0.238-1.163,0.01-2.877,1.761-2.776c1.836,0.106,1.785,1.749,1.746,3.163
			C144.445,54.863,144.457,55.363,144.457,56.066z"/>
		<path fill="#F2F1F3" d="M187.098,59.523c0.425-1.022-0.642-2.748,1.067-2.738c1.26,0.008,1.34,1.587,1.273,2.677
			c-0.063,1.033,0.097,2.684-1.27,2.649C186.508,62.069,187.56,60.327,187.098,59.523z"/>
	</g>
</g>
</svg>
