<svg xmlns="http://www.w3.org/2000/svg" viewBox="0 0 171.93 61.814" enable-background="new 0 0 171.93 61.814"><path fill="#353334" d="M153.312 53.16c-5.535-1.613-3.733-9.27-2.679-11.51 0 0 7.032.892 12.711-1.31 5.693-2.207 8.585-7.83 8.585-11.91 0-3.808-1.599-10.246-9.941-10.246-8.209 0-16.052 10.275-19.065 18.226-1.255 3.311-8.368 17.62-12.044 17.62-3.594 0-.163-6.281 3.287-12.153 2.666-4.537 5.663-9.294 6.256-11.905 1.102-4.854-.188-11.776-7.091-11.776-5.139 0-9.9 7.184-10.761 8.292-.095.123-.145.174-.14.13l.011-.13c.491-4.477-1.468-8.292-5.903-8.292-4.164 0-10.248 4.794-11.411 7.685l.035-.104-.143-4.466h-3.636l-9.073 17.8-2.529 5.26.141.525c.075.312.143.626.198.945.133.779.205 1.578.205 2.395 0 5.013-2.585 9.418-6.491 11.969h8.176c1.878-3.906 3.31-6.881 3.366-6.99 5.685-11.063 12.608-24.215 17.113-24.422 2.168-.1 1.706 2.086.58 4.468l.005.002-13.901 26.942h9.431c1.15-2.086 8.774-15.913 8.983-16.284 3.42-6.072 8.347-15.128 12.302-15.128 6.195 0-9.051 15.719-9.051 24.003 0 5.77 3.078 9.019 8.442 9.019 5.912 0 10.064-7.859 11.142-11.111.824 6.561 7.119 12.255 14.629 10.812 9.203-1.768 14.168-12.322 14.465-15.76h-3.198c-1.814 4.662-6.847 9.199-13.006 7.404zm7.903-27.122c2.924-1.546 5.593-.269 5.014 3.437-.738 4.723-8.542 7.031-13.144 6.075 2.154-4.349 5.292-7.918 8.13-9.512zM61.641 48.233c0-7.632 5.947-13.86 13.458-14.342l.457-.031.054-.457.059.001c.169-1.629.251-3.225.251-4.863 0-9.218-2.619-16.354-7.786-21.21-5.176-4.864-12.649-7.331-22.211-7.331h-20.779v59.732h19.325c7.599 0 13.889-1.587 18.884-4.74l-.253-.476c-.925-1.9-1.459-4.027-1.459-6.283zm-7.222-7.399c-2.336 2.702-5.975 4.072-10.815 4.072h-2.28v-30.926h3.278c4.392 0 7.748 1.28 9.976 3.804 2.181 2.473 3.288 6.228 3.288 11.16.001 5.248-1.159 9.249-3.447 11.89zm-54.419 18.898h16.22v-59.732h-16.22z"/><circle fill="#2FC877" cx="76.03" cy="48.233" r="8.857"/></svg>