<?xml version="1.0" encoding="utf-8"?>
<!-- Generator: Adobe Illustrator 17.0.0, SVG Export Plug-In . SVG Version: 6.00 Build 0)  -->
<!DOCTYPE svg PUBLIC "-//W3C//DTD SVG 1.1//EN" "http://www.w3.org/Graphics/SVG/1.1/DTD/svg11.dtd">
<svg version="1.1" id="Layer_1" xmlns="http://www.w3.org/2000/svg" xmlns:xlink="http://www.w3.org/1999/xlink" x="0px" y="0px"
	 width="400px" height="150px" viewBox="0 0 400 150" enable-background="new 0 0 400 150" xml:space="preserve">
<g>
	<g>
		<path fill="#FEFEFE" fill-opacity="0.0" d="M200.5,151c-65.5,0-131-0.034-196.5,0.097c-3.425,0.007-4.108-0.671-4.098-4.097
			C0.047,99.5,0.035,52-0.083,4.5C-0.091,1.517,0.518,0.917,3.5,0.919c131.333,0.094,262.667,0.094,394,0
			c2.982-0.002,3.591,0.598,3.583,3.581c-0.118,47.666-0.118,95.333,0,143c0.007,2.983-0.601,3.588-3.583,3.583
			C331.833,150.975,266.167,151,200.5,151z"/>
		<path fill="#68CDDC" d="M246.761,43.046c0.784,4.356,3.371,8.273,2.789,12.989c-0.999,8.085-5.362,13.905-12.116,17.901
			c-2.831,1.675-2.989,3.251-1.918,5.983c1.356,3.457,3.219,6.834,3.257,11.877c-4.451-3.147-8.331-5.621-11.894-8.488
			c-3.331-2.68-6.721-3.144-11.009-2.978c-13.871,0.535-26.369-2.955-34.977-15.025c-0.462-0.647-0.63-1.503-0.935-2.262
			c1.56-1.701,3.662-1.261,5.6-1.376c5.63-0.334,10.74-1.956,14.972-5.849c0.66-0.422,1.388-0.575,2.159-0.54
			c7.893,2.07,7.893,2.07,16.12,9.957c-0.457-7.601,4.702-8.707,10.039-10.148c6.917-1.868,12.564-5.877,16.604-11.938
			C245.867,42.838,246.303,42.792,246.761,43.046z"/>
		<path fill="#679FE5" d="M246.761,43.046c-0.264-0.002-0.527,0.002-0.791,0.013c-2.018,0.226-2.777-1.558-4.013-2.55
			c-13.116-10.518-27.567-13.068-43.42-7.334c-1.269,0.504-2.456,0.083-3.643-0.32c-3.895-1.781-8.11-1.923-12.268-2.368
			c-0.513-0.112-0.782-0.432-0.812-0.954c6.358-19.517,38.284-26.942,57.999-12.202c5.81,4.345,9.787,9.901,9.322,17.712
			C248.963,37.924,248.316,40.605,246.761,43.046z"/>
		<path fill="#F7A962" d="M179.239,62.677c-5.309,1.155-9.267,5.064-14.387,7.175c-0.055-0.602-0.256-1.088-0.106-1.412
			c2.515-5.419,3.513-9.967-1.876-15.095c-4.713-4.485-3.438-11.138,1.23-16.169c4.28-4.612,9.586-7.029,15.899-7.175
			c2.169,2.185,0.684,4.941,1.184,7.387c0.461,0.1,0.853,0.285,1.22,0.558c0.836,0.969,1.292,2.071,1.277,3.352
			c-0.042,0.51-0.18,0.993-0.395,1.456c-3.514,5.018-4.823,10.512-3.627,16.569C179.885,60.467,180.029,61.642,179.239,62.677z"/>
		<path fill="#03396A" d="M195.47,127.693c0-3.657,0.08-7.316-0.031-10.969c-0.065-2.127,0.679-2.985,2.866-2.884
			c3.484,0.16,6.999-0.126,10.462,0.194c7.005,0.647,9.579,6.01,5.681,11.912c-0.917,1.389-0.822,1.658,0.444,2.455
			c2.902,1.827,3.688,4.628,2.817,7.818c-0.886,3.246-3.384,4.837-6.502,5.466c-4.441,0.896-8.951,0.255-13.426,0.431
			c-2.177,0.086-2.323-1.339-2.317-2.953C195.48,135.339,195.47,131.516,195.47,127.693z"/>
		<path fill="#033A6A" d="M257.077,141.667c-4.119,1.228-6.626,0.106-8.386-3.159c-0.936-1.736-2.252-3.276-3.467-4.851
			c-1.514-1.963-3.704-1.184-5.553-0.998c-2.282,0.23-1.225,2.302-1.384,3.618c-0.139,1.145-0.07,2.321-0.028,3.481
			c0.059,1.611-0.496,2.432-2.287,2.385c-1.619-0.043-2.502-0.56-2.499-2.277c0.013-7.965,0.014-15.931-0.001-23.896
			c-0.003-1.439,0.618-2.135,2.084-2.093c4.474,0.128,8.973-0.013,13.415,0.431c3.325,0.333,5.979,2.22,6.713,5.756
			c0.771,3.713,0.777,7.663-2.687,9.935c-2.929,1.921-2.213,3.201-0.501,5.243C254.072,137.123,255.366,139.24,257.077,141.667z"/>
		<path fill="#03396A" d="M142.03,141.643c-4.292,1.283-6.74-0.024-8.469-3.244c-0.857-1.596-2.09-2.989-3.149-4.477
			c-1.597-2.244-3.936-1.504-5.939-1.19c-2.189,0.343-1.052,2.403-1.255,3.72c-0.15,0.974-0.077,1.992-0.022,2.985
			c0.099,1.771-0.388,2.807-2.471,2.714c-1.689-0.076-2.393-0.759-2.389-2.402c0.017-7.808,0.028-15.616-0.007-23.424
			c-0.007-1.61,0.505-2.504,2.259-2.454c4.314,0.123,8.652-0.04,12.938,0.364c3.523,0.332,6.375,2.181,7.134,5.946
			c0.75,3.72,0.68,7.641-2.829,9.9c-2.683,1.728-2.284,2.879-0.622,4.87C138.885,136.956,140.285,139.192,142.03,141.643z"/>
		<path fill="#023869" d="M294.646,127.588c0.001-3.648,0.103-7.299-0.036-10.941c-0.084-2.202,0.762-2.91,2.884-2.802
			c3.143,0.16,6.31-0.066,9.444,0.176c7.751,0.597,12.508,5.253,12.984,12.471c0.534,8.085-3.342,13.266-11.262,15.053
			c-12.428,2.805-14.015,1.563-14.015-10.972C294.645,129.577,294.645,128.583,294.646,127.588z"/>
		<path fill="#033969" d="M182.727,141.548c-3.043,1.077-5.316,0.967-6.167-2.298c-0.848-3.252-3.02-3.922-6.025-3.63
			c-2.146,0.208-4.34,0.181-6.491,0.003c-2.369-0.196-3.816,0.655-4.446,2.952c-0.86,3.134-2.751,4.404-6.495,2.998
			c3.875-8.756,7.644-17.534,11.669-26.194c1.109-2.386,5.25-2.274,6.371,0.152C175.109,124.117,178.856,132.805,182.727,141.548z"
			/>
		<path fill="#043A6A" d="M372.336,126.938c0.374-3.651-1.914-9.42,0.835-12.191c2.737-2.759,8.51-0.611,12.943-0.866
			c1.325-0.076,2.659,0.026,3.987-0.016c1.425-0.045,2.088,0.512,2.101,2.017c0.014,1.57-0.346,2.523-2.173,2.486
			c-3.156-0.064-6.328,0.178-9.467-0.057c-3.141-0.235-3.449,1.346-3.441,3.892c0.008,2.411,0.427,3.792,3.245,3.576
			c2.478-0.19,4.982-0.044,7.475-0.033c1.528,0.006,3.027-0.097,2.943,2.235c-0.086,2.384-1.726,1.99-3.156,2.018
			c-1.993,0.039-3.991,0.076-5.981-0.005c-2.656-0.109-4.607-0.222-4.624,3.714c-0.019,4.095,2.198,3.66,4.726,3.635
			c2.825-0.028,5.65,0.022,8.474-0.01c1.539-0.017,2.502,0.383,2.569,2.2c0.073,1.989-0.806,2.624-2.661,2.605
			c-4.985-0.053-9.971-0.086-14.955,0.013c-2.19,0.043-2.917-0.867-2.866-2.958C372.403,135.372,372.336,131.549,372.336,126.938z"
			/>
		<path fill="#033969" d="M76.876,141.56c3.813-8.694,7.494-17.386,11.454-25.949c1.336-2.889,5.46-2.496,6.872,0.587
			c3.458,7.549,6.772,15.164,10.105,22.77c0.414,0.945,1.673,2.302,0.055,2.911c-1.403,0.528-3.65,0.991-4.307-1.105
			c-2.725-8.687-9.832-4.033-15.034-5.024c-1.923-0.366-2.334,1.723-2.74,3.019C82.256,142.042,80.284,142.851,76.876,141.56z"/>
		<path fill="#03396A" d="M358.192,133.267c-0.033,6.213-5.408,10.18-12.305,9.242c-6.142-0.836-11.001-3.798-12.978-10.106
			c-1.862-5.939-0.558-11.197,4.018-15.46c4.399-4.099,11.275-5.061,16.735-2.302c1.178,0.595,3.675,0.654,2.506,3.286
			c-1.038,2.335-2.381,1.822-4.334,0.986c-4.862-2.082-9.942-0.901-12.612,2.78c-2.709,3.734-2.914,7.801-0.378,11.652
			c2.731,4.148,6.813,4.876,11.449,3.825c2.096-0.475,2.985-1.451,3.146-3.712c0.133-1.88-1.781-5.249,2.347-5.229
			C360.553,128.252,356.673,132.29,358.192,133.267z"/>
		<path fill="#03396A" d="M9.207,127.574c0.273-5.525,2.613-10.078,7.867-12.695c5.287-2.634,10.6-2.512,15.594,0.824
			c1.04,0.695,3.13,1.238,1.798,3.319c-1.174,1.835-2.293,2.022-4.398,0.701c-4.873-3.058-10.236-2.167-13.51,1.668
			c-2.968,3.475-3.013,8.748-0.106,12.412c3.206,4.04,8.257,4.902,13.366,1.775c1.898-1.162,2.863-0.975,4.099,0.536
			c1.654,2.022-0.397,2.611-1.397,3.347c-4.851,3.57-10.039,4.119-15.426,1.254C11.939,137.972,9.408,133.585,9.207,127.574z"/>
		<path fill="#05ADC6" d="M179.239,62.677c-2.411-7.643-2.274-14.828,3.765-20.953c0.809-0.11,1.378,0.298,1.881,0.857
			c2.798,4.699,6.882,7.925,11.684,10.405c1.69,0.873,3.863,1.202,4.64,3.374c-3.432,5.083-8.966,5.699-14.3,6.553
			c-2.266,0.363-4.632,0.105-6.952,0.129C179.734,62.888,179.495,62.766,179.239,62.677z"/>
		<path fill="#083D6C" d="M48.73,127.625c-0.001-3.317-0.078-6.636,0.032-9.949c0.052-1.583-0.937-3.809,2.243-3.861
			c2.986-0.048,2.536,1.895,2.541,3.674c0.014,5.307,0.204,10.623-0.071,15.916c-0.161,3.094,0.753,4.201,3.838,3.864
			c2.13-0.233,4.309,0.029,6.462-0.058c2.011-0.082,2.54,0.909,2.512,2.731c-0.028,1.791-0.909,2.225-2.498,2.204
			c-4.145-0.055-8.294-0.116-12.436,0.02c-2.403,0.078-2.669-1.215-2.639-3.098C48.774,135.253,48.731,131.439,48.73,127.625z"/>
		<path fill="#0C406F" d="M277.149,127.925c0,3.805-0.02,7.611,0.01,11.416c0.013,1.629-0.125,2.88-2.324,2.84
			c-2.011-0.036-2.548-0.964-2.539-2.76c0.038-7.611,0.042-15.222-0.003-22.832c-0.01-1.763,0.399-2.751,2.46-2.788
			c2.092-0.038,2.454,0.946,2.419,2.709C277.096,120.313,277.149,124.12,277.149,127.925z"/>
		<path fill="#FAAA5F" d="M181.089,37.82c-2.549-2.301-0.385-5.259-1.09-7.817c0.604-0.155,1.209-0.31,1.813-0.467
			c-0.002,0.216,0.095,0.371,0.293,0.463c0.228,0.449,0.352,0.924,0.361,1.428C182.088,33.574,182.712,35.94,181.089,37.82z"/>
		<path fill="#3480DD" d="M197.896,32.783c1.78-3.515,5.447-2.857,8.267-3.213c15.369-1.941,29.24,1.033,39.808,13.489
			c-1.709,6.633-7.563,8.814-12.677,11.777c-0.715,0.414-1.49,0.837-2.287,0.982c-6.64,1.21-12.68,2.986-11.674,12.489
			c-4.417-6.424-9.161-11.144-16.501-12.169c-0.579-2.386,1.593-3.776,2.074-5.778c1.195-2.617,1.011-5.249,0.076-7.885
			C204.196,38.091,199.551,36.526,197.896,32.783z"/>
		<path fill="#F58C2E" d="M205.834,50.957c-0.285,2.139-2.04,3.427-3,5.179c-0.545,0.075-1.088,0.149-1.628,0.224
			c-6.987-2.818-13.628-6.083-17.117-13.379c-0.041-2.363,2.362-3.624,2.631-5.853c2.125-2.964,4.856-4.879,8.625-4.999
			c0.851,0.219,1.703,0.437,2.553,0.655c3.391,2.459,7.04,4.696,8.056,9.231C205.903,44.995,206.086,47.979,205.834,50.957z"/>
		<path fill="#2A60A5" d="M195.345,32.129c-2.744,2.089-6.312,2.954-8.563,5.774c-0.757,1.665-1.601,3.227-3.777,3.235
			c-0.366-1.027-0.733-2.054-1.099-3.081c-0.209-0.24-0.308-0.499-0.295-0.775c0.013-0.285,0.047-0.427,0.1-0.427
			c0.473-1.706,0.318-3.435,0.188-5.164c-0.046-0.211-0.091-0.422-0.137-0.633c0.115-0.353,0.229-0.706,0.344-1.058
			C186.826,28.799,191.181,29.87,195.345,32.129z"/>
		<path fill="#F78D2C" d="M183.004,41.137c1.259-1.078,2.518-2.156,3.777-3.235c0.839,2.613-1.937,3.31-2.693,5.077
			c-0.361-0.419-0.722-0.837-1.084-1.256C183.045,41.528,183.045,41.333,183.004,41.137z"/>
		<path fill="#A18B7E" d="M182.19,36.907c-0.095,0.383-0.19,0.766-0.285,1.149c-0.273-0.075-0.546-0.153-0.817-0.235
			c0.177-2.261-0.848-4.639,0.673-6.764c0,0,0.464-0.04,0.464-0.04C182.611,32.983,182.668,34.947,182.19,36.907z"/>
		<path fill="#FEA85E" d="M176.627,57.689c-0.879-2.324-0.678-3.887,0-5.512C176.627,53.7,176.627,55.221,176.627,57.689z"/>
		<path fill="#F9FAFB" d="M206.787,129.93c0.499,0.051,2.022,0.028,3.444,0.397c1.731,0.448,2.893,1.595,2.779,3.595
			c-0.112,1.971-1.241,3.001-3.118,3.246c-1.313,0.172-2.666,0.453-3.956,0.301c-2.358-0.279-5.684,1.693-5.854-3.441
			C199.911,128.905,202.996,130.008,206.787,129.93z"/>
		<path fill="#F3F5F7" d="M204.689,125.372c-2.851,0.314-4.669,0.036-4.602-3.766c0.066-3.693,2.063-3.535,4.472-3.372
			c2.842,0.192,6.742-0.681,6.62,3.825C211.065,126.303,207.22,124.988,204.689,125.372z"/>
		<path fill="#F7F8FA" d="M242.054,128.232c-2.458,0.478-4.265-0.387-3.907-4.427c0.281-3.165-0.517-6.45,4.585-5.685
			c3.581,0.536,8.299-0.808,8.236,5.085C250.91,128.631,246.558,127.911,242.054,128.232z"/>
		<path fill="#F7F9FA" d="M128.411,128.111c-2.758,0.076-5.986,0.861-5.259-3.856c0.415-2.698-1.555-6.819,4.057-6.106
			c3.536,0.45,8.315-1.149,8.705,4.609C136.276,128.102,132.138,128.052,128.411,128.111z"/>
		<path fill="#FBFCFC" d="M299.245,127.725c0-0.497-0.151-1.056,0.025-1.48c1.081-2.604-2.756-7.123,2.682-7.927
			c6.909-1.022,11.905,1.957,12.929,7.134c1.09,5.515-1.397,10.122-6.173,11.433c-0.159,0.044-0.327,0.054-0.488,0.09
			C299.956,138.839,299.245,138.106,299.245,127.725z"/>
		<path fill="#F5F7F9" d="M172.863,130.832c-3.465,0-6.346,0-9.799,0c1.492-3.431,2.896-6.662,4.474-10.292
			C170.323,123.575,170.919,127.271,172.863,130.832z"/>
		<path fill="#F5F7F9" d="M91.53,120.088c0.711,1.34,1.205,2.174,1.61,3.05c3.903,8.446,3.898,8.448-6.367,7.634
			C88.342,127.248,89.832,123.903,91.53,120.088z"/>
		<path fill="#FC8D27" d="M205.834,50.957c-1.259-2.998-1.424-5.982,0.119-8.942C207.542,45.017,207.343,47.996,205.834,50.957z"/>
		<path fill="#1B5CAA" d="M182.19,36.907c0.011-1.964,0.023-3.927,0.035-5.891C183.374,32.987,183.475,34.951,182.19,36.907z"/>
	</g>
</g>
</svg>
